<svg width="140" height="68" viewBox="0 0 140 68" fill="none" xmlns="http://www.w3.org/2000/svg">
<path d="M15.8542 49V15.64H32.2222V19.192L18.0622 19.048L19.9342 17.224L19.5982 31.528L17.8222 30.328H31.0702V33.736H17.8222L19.5982 32.344L19.9342 47.368L18.0622 45.544L32.2222 45.448V49H15.8542ZM49.8705 49.624C47.6945 49.624 45.7745 49.128 44.1105 48.136C42.4465 47.144 41.1505 45.576 40.2225 43.432C39.2945 41.256 38.8305 38.424 38.8305 34.936C38.8305 32.088 39.1345 29.72 39.7425 27.832C40.3825 25.944 41.2465 24.472 42.3345 23.416C43.4225 22.328 44.7025 21.56 46.1745 21.112C47.6465 20.664 49.2145 20.44 50.8785 20.44C52.0945 20.44 53.3265 20.52 54.5745 20.68C55.8545 20.84 56.8945 21.016 57.6945 21.208L57.2145 24.568C56.6065 24.504 55.6465 24.392 54.3345 24.232C53.0225 24.04 51.6145 23.944 50.1105 23.944C48.9265 23.944 47.9185 24.04 47.0865 24.232C46.2865 24.424 45.6625 24.744 45.2145 25.192C44.6065 25.864 44.0785 27.096 43.6305 28.888C43.2145 30.648 43.0065 32.76 43.0065 35.224C43.0065 37.496 43.1825 39.336 43.5345 40.744C43.8865 42.12 44.3025 43.176 44.7825 43.912C45.2625 44.616 45.6945 45.112 46.0785 45.4C46.3345 45.592 46.6705 45.768 47.0865 45.928C47.5345 46.088 48.1585 46.168 48.9585 46.168C49.8865 46.168 50.8305 46.056 51.7905 45.832C52.7505 45.608 53.6305 45.352 54.4305 45.064C55.2305 44.776 55.8705 44.52 56.3505 44.296C56.8625 44.072 57.1185 43.96 57.1185 43.96L58.3665 47.08C58.3665 47.08 58.0145 47.288 57.3105 47.704C56.6065 48.12 55.6145 48.552 54.3345 49C53.0545 49.416 51.5665 49.624 49.8705 49.624ZM74.1382 49.624C71.4822 49.624 69.3862 49.032 67.8502 47.848C66.3462 46.664 65.2742 44.984 64.6342 42.808C63.9942 40.632 63.6742 38.04 63.6742 35.032C63.6742 32.024 63.9942 29.432 64.6342 27.256C65.2742 25.08 66.3462 23.4 67.8502 22.216C69.3862 21.032 71.4822 20.44 74.1382 20.44C76.7942 20.44 78.8742 21.032 80.3782 22.216C81.9142 23.4 83.0022 25.08 83.6422 27.256C84.2822 29.432 84.6022 32.024 84.6022 35.032C84.6022 38.04 84.2822 40.632 83.6422 42.808C83.0022 44.984 81.9142 46.664 80.3782 47.848C78.8742 49.032 76.7942 49.624 74.1382 49.624ZM74.1382 46.168C75.3542 46.168 76.3622 46.024 77.1622 45.736C77.9942 45.448 78.6502 44.92 79.1302 44.152C79.6422 43.384 79.9942 42.264 80.1862 40.792C80.4102 39.32 80.5222 37.4 80.5222 35.032C80.5222 32.664 80.4102 30.744 80.1862 29.272C79.9942 27.8 79.6422 26.68 79.1302 25.912C78.6502 25.112 77.9942 24.584 77.1622 24.328C76.3622 24.04 75.3542 23.896 74.1382 23.896C72.9222 23.896 71.8982 24.04 71.0662 24.328C70.2662 24.584 69.6102 25.112 69.0982 25.912C68.6182 26.68 68.2662 27.8 68.0422 29.272C67.8182 30.744 67.7062 32.664 67.7062 35.032C67.7062 37.4 67.8182 39.32 68.0422 40.792C68.2662 42.264 68.6182 43.384 69.0982 44.152C69.6102 44.92 70.2662 45.448 71.0662 45.736C71.8982 46.024 72.9222 46.168 74.1382 46.168Z" fill="#185519"/>
<path d="M95.5862 24.1505C94.1813 25.6083 93.3923 27.5838 93.3923 29.6434C93.3923 31.7031 94.1813 33.6786 95.5862 35.1364C97.054 36.6567 98.9719 37.4113 100.89 37.4113C102.808 37.4113 104.725 36.6567 106.193 35.1364C109.922 31.2747 110.533 19.6562 110.533 19.6562C110.533 19.6562 99.3147 20.2888 95.5862 24.1505ZM104.683 33.5717C103.665 34.6148 102.325 35.1919 100.89 35.1919C99.9362 35.1919 99.0362 34.9145 98.2326 34.4373C99.2183 31.2414 101.04 28.4339 103.461 26.3144C100.643 27.8236 98.2755 30.1539 96.6362 32.9725C95.0505 30.7975 95.1898 27.7015 97.1076 25.7151C98.9719 23.7843 104.147 22.5969 108.175 22.0976C107.693 26.27 106.547 31.6298 104.683 33.5717Z" fill="#185519"/>
<path d="M109 12.6562C104.924 12.6562 100.94 13.908 97.551 16.2533C94.1621 18.5986 91.5208 21.932 89.961 25.8321C88.4013 29.7322 87.9932 34.0237 88.7883 38.1639C89.5835 42.3042 91.5462 46.1073 94.4282 49.0923C97.3103 52.0773 100.982 54.1101 104.98 54.9336C108.977 55.7572 113.121 55.3345 116.886 53.719C120.652 52.1036 123.87 49.3679 126.135 45.8579C128.399 42.348 129.608 38.2214 129.608 34C129.602 28.3412 127.429 22.9159 123.565 18.9146C119.702 14.9132 114.464 12.6625 109 12.6562ZM127.959 34C127.959 36.1685 123.372 38.527 116.19 39.5067C116.339 37.7608 116.419 35.9209 116.419 34C116.419 25.2149 114.756 17.9922 112.24 14.6519C116.638 15.4479 120.625 17.8239 123.5 21.3624C126.375 24.9008 127.954 29.3754 127.959 34ZM109 14.3637C111.729 14.3637 114.77 22.4274 114.77 34C114.77 36.017 114.675 37.9251 114.509 39.7052C112.79 39.8781 110.948 39.9762 109 39.9762C97.8266 39.9762 90.041 36.8259 90.041 34C90.0464 28.7939 92.0456 23.8026 95.6 20.1213C99.1543 16.44 103.973 14.3694 109 14.3637ZM90.3192 37.3552C93.5443 39.9613 100.518 41.6837 109 41.6837C110.855 41.6837 112.631 41.6005 114.317 41.4468C113.371 48.8851 111.094 53.6362 109 53.6362C104.535 53.6305 100.215 51.9952 96.7982 49.0176C93.3818 46.0401 91.0877 41.9108 90.3192 37.3552ZM112.24 53.3481C114.018 50.9875 115.37 46.6846 116.011 41.2611C121.247 40.5973 125.402 39.1972 127.681 37.3552C127.007 41.3417 125.162 45.016 122.399 47.8777C119.636 50.7395 116.089 52.6497 112.24 53.3481Z" fill="#185519"/>
</svg>
