<svg width="61" height="58" viewBox="0 0 61 58" fill="none" xmlns="http://www.w3.org/2000/svg">
<ellipse cx="30.3516" cy="28.875" rx="30.3516" ry="28.875" fill="#028960"/>
<g clip-path="url(#clip0_378_1977)">
<path d="M29.9285 37.9577C30.9134 37.9577 31.8886 37.7637 32.7986 37.3868C33.7085 37.0099 34.5353 36.4574 35.2318 35.761C35.9282 35.0646 36.4807 34.2378 36.8576 33.3278C37.2345 32.4179 37.4285 31.4426 37.4285 30.4577C37.4285 29.4728 37.2345 28.4975 36.8576 27.5876C36.4807 26.6776 35.9282 25.8508 35.2318 25.1544C34.5353 24.458 33.7085 23.9055 32.7986 23.5286C31.8886 23.1517 30.9134 22.9577 29.9285 22.9577C27.9393 22.9577 26.0317 23.7479 24.6252 25.1544C23.2186 26.5609 22.4285 28.4686 22.4285 30.4577C22.4285 32.4468 23.2186 34.3545 24.6252 35.761C26.0317 37.1675 27.9393 37.9577 29.9285 37.9577Z" stroke="#9BF3D6" stroke-width="3" stroke-linecap="round" stroke-linejoin="round"/>
<path d="M34.9642 17.2148C35.9577 18.2104 36.6338 19.478 36.9071 20.8577C37.1805 22.2373 37.0387 23.667 36.4998 24.9661C35.961 26.2652 35.0491 27.3755 33.8795 28.1566C32.7098 28.9377 31.3349 29.3545 29.9285 29.3545C28.522 29.3545 27.1472 28.9377 25.9775 28.1566C24.8079 27.3755 23.896 26.2652 23.3572 24.9661C22.8183 23.667 22.6765 22.2373 22.9498 20.8577C23.2232 19.478 23.8993 18.2104 24.8928 17.2148" stroke="#9BF3D6" stroke-width="3" stroke-linecap="round" stroke-linejoin="round"/>
<path d="M16 32.622C16.3653 31.2638 17.125 30.0443 18.1831 29.1177C19.2412 28.191 20.5502 27.5988 21.9447 27.4159C23.3393 27.2329 24.7567 27.4674 26.018 28.0897C27.2794 28.7121 28.3279 29.6943 29.0312 30.9123C29.7345 32.1304 30.0609 33.5295 29.9693 34.933C29.8777 36.3365 29.3722 37.6814 28.5165 38.7977C27.6609 39.914 26.4936 40.7516 25.1621 41.2047C23.8306 41.6578 22.3946 41.7061 21.0357 41.3434" stroke="#9BF3D6" stroke-width="3" stroke-linecap="round" stroke-linejoin="round"/>
<path d="M38.8215 41.3434C37.4626 41.7061 36.0267 41.6578 34.6952 41.2047C33.3637 40.7516 32.1963 39.914 31.3407 38.7977C30.4851 37.6814 29.9795 36.3365 29.8879 34.933C29.7963 33.5295 30.1228 32.1304 30.8261 30.9123C31.5293 29.6943 32.5779 28.7121 33.8392 28.0897C35.1005 27.4674 36.518 27.2329 37.9125 27.4159C39.3071 27.5988 40.6161 28.191 41.6742 29.1177C42.7323 30.0443 43.492 31.2638 43.8572 32.622" stroke="#9BF3D6" stroke-width="3" stroke-linecap="round" stroke-linejoin="round"/>
</g>
<defs>
<clipPath id="clip0_378_1977">
<rect width="30" height="30" fill="white" transform="translate(15 14)"/>
</clipPath>
</defs>
</svg>
