<svg width="61" height="58" viewBox="0 0 61 58" fill="none" xmlns="http://www.w3.org/2000/svg">
<ellipse cx="30.3516" cy="28.875" rx="30.3516" ry="28.875" fill="#028960"/>
<g clip-path="url(#clip0_378_1982)">
<path d="M30 34.25C30 37.0391 31.3828 39.5047 33.5062 41H21.0046C19.35 41 18.0046 39.6547 18.0046 38V30.4813H16.5046C15.6609 30.4813 15.0046 29.825 15.0046 28.9766C15.0046 28.5547 15.1453 28.1797 15.4734 27.8516L27.4875 17.375C27.8156 17.0469 28.1906 17 28.5187 17C28.8468 17 29.2218 17.0938 29.5031 17.3281L39.4734 26.0891C39.075 26.0281 38.6625 26 38.25 26C35.6859 26 33.3984 27.1672 31.8843 29H30V26.75C30 26.3375 29.6625 26 29.25 26H27.75C27.3375 26 27 26.3375 27 26.75V29H24.75C24.3375 29 24 29.3375 24 29.75V31.25C24 31.6625 24.3375 32 24.75 32H27V34.25C27 34.6625 27.3375 35 27.75 35H29.25C29.6625 35 30 34.6625 30 34.25ZM38.25 27.5C40.0402 27.5 41.7571 28.2112 43.0229 29.477C44.2888 30.7429 45 32.4598 45 34.25C45 36.0402 44.2888 37.7571 43.0229 39.023C41.7571 40.2888 40.0402 41 38.25 41C36.4597 41 34.7429 40.2888 33.477 39.023C32.2111 37.7571 31.5 36.0402 31.5 34.25C31.5 32.4598 32.2111 30.7429 33.477 29.477C34.7429 28.2112 36.4597 27.5 38.25 27.5ZM38.25 38.75C38.5483 38.75 38.8345 38.6315 39.0454 38.4205C39.2564 38.2095 39.375 37.9234 39.375 37.625C39.375 37.3266 39.2564 37.0405 39.0454 36.8295C38.8345 36.6185 38.5483 36.5 38.25 36.5C37.9516 36.5 37.6654 36.6185 37.4545 36.8295C37.2435 37.0405 37.125 37.3266 37.125 37.625C37.125 37.9234 37.2435 38.2095 37.4545 38.4205C37.6654 38.6315 37.9516 38.75 38.25 38.75ZM38.25 29.75C37.8375 29.75 37.5 30.0875 37.5 30.5V34.25C37.5 34.6625 37.8375 35 38.25 35C38.6625 35 39 34.6625 39 34.25V30.5C39 30.0875 38.6625 29.75 38.25 29.75Z" fill="#9BF3D6"/>
</g>
<defs>
<clipPath id="clip0_378_1982">
<rect width="30" height="24" fill="white" transform="translate(15 17)"/>
</clipPath>
</defs>
</svg>
