<svg width="61" height="58" viewBox="0 0 61 58" fill="none" xmlns="http://www.w3.org/2000/svg">
<ellipse cx="30.3516" cy="28.875" rx="30.3516" ry="28.875" fill="#028960"/>
<path d="M24.7251 34.8292C26.198 31.1687 27.8605 26.9833 34.1459 25.5833C34.1459 25.5833 26.8542 25.5833 24.4917 32.3354C24.4917 32.3354 23.2084 31.0521 23.2084 29.5937C23.2084 28.1354 24.6667 25.0437 28.3126 24.3146C29.348 24.125 30.5001 23.9354 31.6376 23.775C34.5105 23.3958 37.2667 22.9875 37.7917 21.9375C37.7917 21.9375 35.6042 34.3333 27.5834 34.3333C27.3209 34.3333 26.9563 34.2458 26.6063 34.1146L25.9209 35.7917L24.5355 35.3104L24.7251 34.8292ZM30.5001 16.8333C36.9313 16.8333 42.1667 22.0687 42.1667 28.5C42.1667 34.9312 36.9313 40.1667 30.5001 40.1667C24.0688 40.1667 18.8334 34.9312 18.8334 28.5C18.8334 22.0687 24.0688 16.8333 30.5001 16.8333ZM30.5001 13.9167C22.4792 13.9167 15.9167 20.4792 15.9167 28.5C15.9167 36.5208 22.4792 43.0833 30.5001 43.0833C38.5209 43.0833 45.0834 36.5208 45.0834 28.5C45.0834 20.4792 38.5209 13.9167 30.5001 13.9167Z" fill="#9BF3D6"/>
</svg>
